<svg xmlns="http://www.w3.org/2000/svg" width="111" height="16" viewBox="0 0 111 16" fill="none">
    <path d="M0 8C0 3.58172 3.68406 0 8.22857 0H101.829C106.373 0 110.057 3.58172 110.057 8C110.057 12.4183 106.373 16 101.829 16H8.22857C3.68406 16 0 12.4183 0 8Z"
          fill="currentColor"/>
    <path d="M23.6607 3.99578L25.1126 6.58376L27.7714 8.00349L25.1123 9.4165L23.6536 12.0042L22.2017 9.41624L19.5429 7.99652L22.202 6.58351L23.6607 3.99578Z"
          fill="#f9f5f1"/>
    <path d="M55.5528 12.9997C54.8101 13.0012 54.076 12.8444 53.4025 12.5403C52.481 12.1318 51.7045 11.4677 51.1707 10.6317C50.637 9.79568 50.3698 8.82506 50.4027 7.84194C50.4357 6.85883 50.7673 5.90713 51.356 5.10659C51.9446 4.30605 52.7639 3.69241 53.7108 3.3429L54.6315 3L54.0166 3.76485C53.6668 4.19217 53.4374 4.70052 53.3511 5.23995C53.2647 5.77938 53.3244 6.33135 53.5242 6.84162C53.7737 7.49525 54.2358 8.05207 54.8405 8.42768C55.4453 8.8033 56.1597 8.97722 56.8754 8.92309C57.5911 8.86896 58.2691 8.58973 58.8067 8.12772C59.3442 7.66571 59.712 7.04612 59.8542 6.36287L60.0494 5.40712L60.3878 6.32273C60.8396 7.55867 60.7755 8.91722 60.2092 10.1079C59.6429 11.2986 58.6194 12.2268 57.3574 12.6942C56.7801 12.9022 56.1685 13.0058 55.5528 12.9997ZM53.0781 4.24552C52.381 4.67501 51.8162 5.27922 51.4432 5.99441C51.0703 6.70961 50.903 7.50928 50.959 8.30908C51.0151 9.10889 51.2923 9.87919 51.7616 10.5387C52.2309 11.1983 52.8748 11.7226 53.6254 12.0565C54.376 12.3904 55.2054 12.5213 56.0263 12.4356C56.8472 12.3499 57.629 12.0507 58.2893 11.5696C58.9497 11.0884 59.4641 10.4431 59.7782 9.70177C60.0924 8.96043 60.1947 8.1505 60.0744 7.3574C59.7457 8.01812 59.2241 8.57029 58.5745 8.94506C57.9249 9.31984 57.176 9.50063 56.4212 9.46491C55.6665 9.42918 54.9393 9.17852 54.3303 8.74418C53.7213 8.30983 53.2574 7.71101 52.9966 7.02239C52.6506 6.12133 52.6841 5.12417 53.0899 4.24695L53.0781 4.24552Z"
          fill="#f9f5f1"/>
    <path d="M87.4322 3.99578L88.884 6.58376L91.5429 8.00349L88.8838 9.4165L87.425 12.0042L85.9732 9.41624L83.3143 7.99652L85.9734 6.58351L87.4322 3.99578Z"
          fill="#f9f5f1"/>
</svg>